<svg xmlns="http://www.w3.org/2000/svg" viewBox="0 0 233.2 71">
  <path d="M24.6 53l.6-5.2h-.5c-1.4 4.9-5.9 6.5-11.9 6.5C5.6 54.3 0 51.2 0 42.6V15.3c4.4-.4 8.7-.4 13.2 0v21.2c0 5.8 2.1 6.6 5.2 6.6 3.7 0 5.2-.9 6.2-4.9v-23c4.4-.4 8.7-.4 13.2 0V53c0 13-7.1 17.9-21.9 17.9-3.8 0-8.7-.3-13.3-.9-.2-3 .2-7.5 1-10.4 3.9.7 7.6 1 11.3 1 4.5 0 9.8-1 9.8-5.9V53zM72 49.3h-.5c-1.4 4.9-5.9 6.5-12.1 6.5-7.3 0-12.8-2.8-12.8-11.3V15.3c3.1-.4 10-.4 13.2 0v22.8c0 5.7 2.2 6.5 5.3 6.5 3.7 0 5.2-1.1 6.2-4.9V15.3c3.1-.4 10.1-.4 13.2 0V55c-3 .4-8.7.4-11.8 0l-.7-5.7zM118.8 49.3h-.5c-1.4 4.9-5.9 6.5-12.1 6.5-7.3 0-12.8-2.8-12.8-11.3V15.3c3.1-.4 10-.4 13.2 0v22.8c0 5.7 2.2 6.5 5.3 6.5 3.7 0 5.2-1.1 6.2-4.9V15.3c3.1-.4 10.1-.4 13.2 0V55c-3 .4-8.7.4-11.8 0l-.7-5.7zM136.8 15.3c3.1-.4 10-.4 13.1 0l7.1 27.1 7-27.1c3-.4 9.7-.4 12.8 0l-11.4 39.5c-4.1.4-12.9.4-17 0l-11.6-39.5zM195.6 10.2c-3.1.4-10.5.4-13.6 0l-.2-9.9c3.1-.4 10.9-.4 14.1 0l-.3 9.9zm-13.4 5.1c3.1-.4 10-.4 13.2 0v39.5c-3.1.4-10 .4-13.2 0V15.3zM233.2 45.5c0 7.4-5.9 10.3-15.9 10.3-4.2 0-9-.3-13.5-1-.4-3.1-.4-6.7 0-9.7 4.3.7 8.4.9 11.4.9 2.6 0 4.9-.2 4.9-2v-1.4c0-1.7-1.4-1.9-3.8-2.7l-6.4-1.8c-4-1.1-6.4-4-6.4-9.2v-4.7c0-7.1 6.3-10 16.3-10 4 0 8.4.4 12.9 1.3.4 3.1.4 6.6 0 9.7-4.8-.8-8-1.1-11.3-1.1-2.5 0-4.7.2-4.7 2.1v1.3c0 1.5 1.7 2.1 4 2.7l5.7 1.6c4.6 1.3 6.9 3.7 6.9 9.7v4z"/>
</svg>
