<svg xmlns="http://www.w3.org/2000/svg" viewBox="0 0 223.4 70.9"><g fill="#fff"><path d="M24.9 52.6l.6-4.8H25c-1.4 4.6-5.6 6-11.2 6-6.8 0-12-2.9-12-10.9V17.3c4.2-.3 8.2-.3 12.4 0v19.9c0 5.4 2 6.2 4.9 6.2 3.5 0 4.8-.9 5.8-4.6V17.3c4.1-.4 8.2-.4 12.3 0v35.4c0 12.2-6.6 16.7-20.5 16.7-3.6 0-8.1-.3-12.5-.9-.1-2.8.2-7 .9-9.7 3.6.6 7.1.9 10.5.9 4.2 0 9.2-.9 9.2-5.5v-1.6zM69.2 49.1h-.5c-1.3 4.6-5.5 6-11.3 6-6.8 0-12-2.6-12-10.6V17.3c2.9-.4 9.4-.4 12.3 0v21.3c0 5.3 2.1 6.1 5 6.1 3.5 0 4.9-1.1 5.8-4.6V17.3c2.9-.4 9.5-.4 12.3 0v37.1c-2.8.4-8.2.4-11 0l-.6-5.3z"/><path class="st0" d="M113 49.1h-.5c-1.3 4.6-5.5 6-11.3 6-6.8 0-12-2.6-12-10.6V17.3c2.9-.4 9.4-.4 12.3 0v21.3c0 5.3 2.1 6.1 5 6.1 3.5 0 4.9-1.1 5.8-4.6V17.3c2.9-.4 9.5-.4 12.3 0v37.1c-2.8.4-8.2.4-11 0l-.6-5.3z"/><path d="M129.9 17.3c2.9-.4 9.4-.4 12.2 0l6.6 25.4 6.5-25.4c2.8-.4 9.1-.4 12 0l-10.7 37c-3.8.4-12.1.4-15.9 0l-10.7-37zM184.9 12.5c-2.9.4-9.8.4-12.7 0l-.2-9.3c2.9-.4 10.2-.4 13.2 0l-.3 9.3zm-12.5 4.8c2.9-.4 9.4-.4 12.3 0v37c-2.9.4-9.4.4-12.3 0v-37zM220.1 45.5c0 6.9-5.6 9.6-14.9 9.6-3.9 0-8.4-.3-12.7-.9-.4-2.9-.4-6.3 0-9.1 4 .6 7.9.9 10.7.9 2.4 0 4.6-.1 4.6-1.9v-1.4c0-1.6-1.3-1.8-3.6-2.5l-6-1.7c-3.8-1.1-6-3.8-6-8.6v-4.4c0-6.7 5.9-9.3 15.2-9.3 3.8 0 7.8.4 12 1.2.4 2.9.4 6.2 0 9-4.5-.8-7.5-1.1-10.5-1.1-2.3 0-4.4.1-4.4 1.9v1.2c0 1.4 1.6 1.9 3.7 2.6l5.3 1.5c4.3 1.2 6.5 3.4 6.5 9.1v3.9z"/></g></svg>
